HIERARCHY
ROOT Hips
{
	OFFSET 0.000000 0.000000 0.000000 
	CHANNELS 6 Xposition Yposition Zposition Zrotation Xrotation Yrotation
	JOINT Spine
	{
		OFFSET -0.000000 7.979263 0.000000 
		CHANNELS 3 Zrotation Xrotation Yrotation
		JOINT Spine1
		{
			OFFSET -0.000000 24.719021 0.000000 
			CHANNELS 3 Zrotation Xrotation Yrotation
			JOINT Neck
			{
				OFFSET -0.000000 24.617504 2.237955 
				CHANNELS 3 Zrotation Xrotation Yrotation
				JOINT Head
				{
					OFFSET -0.000000 13.623132 -1.946162 
					CHANNELS 3 Zrotation Xrotation Yrotation
					End Site
					{
						OFFSET -0.000000 24.327021 0.000000 
					}
				}
			}
			JOINT LeftShoulder
			{
				OFFSET 3.885773 23.018444 -0.302444 
				CHANNELS 3 Zrotation Xrotation Yrotation
				JOINT LeftArm
				{
					OFFSET 10.447750 0.000000 0.000000 
					CHANNELS 3 Zrotation Xrotation Yrotation
					JOINT LeftForeArm
					{
						OFFSET 29.090096 0.000000 0.000000 
						CHANNELS 3 Zrotation Xrotation Yrotation
						JOINT LeftHand
						{
							OFFSET 28.893339 0.000000 0.000000 
							CHANNELS 3 Zrotation Xrotation Yrotation
							End Site
							{
								OFFSET 14.596213 0.000000 0.000000 
							}
						}
					}
				}
			}
			JOINT RightShoulder
			{
				OFFSET -3.864586 23.018444 -0.302444 
				CHANNELS 3 Zrotation Xrotation Yrotation
				JOINT RightArm
				{
					OFFSET -10.447750 0.000000 0.000000 
					CHANNELS 3 Zrotation Xrotation Yrotation
					JOINT RightForeArm
					{
						OFFSET -29.090096 0.000000 0.000000 
						CHANNELS 3 Zrotation Xrotation Yrotation
						JOINT RightHand
						{
							OFFSET -28.893339 0.000000 0.000000 
							CHANNELS 3 Zrotation Xrotation Yrotation
							End Site
							{
								OFFSET -14.596213 0.000000 0.000000 
							}
						}
					}
				}
			}
		}
	}
	JOINT LeftUpLeg
	{
		OFFSET 9.730808 0.000000 0.000000 
		CHANNELS 3 Zrotation Xrotation Yrotation
		JOINT LeftLeg
		{
			OFFSET -0.000000 -34.800129 0.000000 
			CHANNELS 3 Zrotation Xrotation Yrotation
			JOINT LeftFoot
			{
				OFFSET -0.000000 -44.597416 0.000000 
				CHANNELS 3 Zrotation Xrotation Yrotation
				JOINT LeftToeBase
				{
					OFFSET -0.000000 -6.325025 14.596213 
					CHANNELS 3 Zrotation Xrotation Yrotation
					End Site
					{
						OFFSET -0.000000 0.000000 3.892323 
					}
				}
			}
		}
	}
	JOINT RightUpLeg
	{
		OFFSET -9.730808 0.000000 0.000000 
		CHANNELS 3 Zrotation Xrotation Yrotation
		JOINT RightLeg
		{
			OFFSET -0.000000 -34.800129 0.000000 
			CHANNELS 3 Zrotation Xrotation Yrotation
			JOINT RightFoot
			{
				OFFSET -0.000000 -44.597416 0.000000 
				CHANNELS 3 Zrotation Xrotation Yrotation
				JOINT RightToeBase
				{
					OFFSET -0.000000 -6.325025 14.596213 
					CHANNELS 3 Zrotation Xrotation Yrotation
					End Site
					{
						OFFSET -0.000000 0.000000 3.892323 
					}
				}
			}
		}
	}
}
MOTION
Frames: 14
Frame Time: 0.008333
1.181488 95.609299 -0.013367 -9.269693 -7.359116 88.156242 6.720314 -13.767780 0.490611 2.800870 -6.851503 -0.153908 1.829696 25.480629 7.091544 -6.459778 19.982058 7.780644 5.795810 2.745477 -13.647663 -11.577669 -1.589698 9.283114 -3.538328 6.412070 6.639203 19.336143 5.647028 -5.715882 -9.346945 5.864971 2.111162 9.079915 1.349324 7.521080 -2.403051 -1.216485 -12.412107 -14.123878 -2.135936 5.310426 10.348103 -3.664742 -0.222606 -3.104023 4.184846 -14.920757 -16.813625 12.055758 37.654011 0.000000 0.000000 0.000000 10.835207 -1.755734 1.755588 -5.740845 -6.453016 0.541950 23.640484 40.240128 -25.421980 0.000000 0.000000 0.000000 
1.187069 95.604881 -0.013710 -9.262853 -7.347365 88.150620 6.705434 -13.743884 0.488147 2.800196 -6.872143 -0.152784 1.868767 25.511530 7.091845 -6.517547 19.927996 7.783799 5.785423 2.736806 -13.651906 -11.558148 -1.613851 9.279896 -3.551133 6.439010 6.643365 19.391554 5.670537 -5.724731 -9.350120 5.876438 2.125484 9.092611 1.287259 7.503932 -2.401736 -1.173582 -12.420408 -13.969183 -2.085543 5.308433 10.342472 -3.652057 -0.222910 -3.112499 4.188682 -14.984035 -16.806673 12.034959 37.710701 0.000000 0.000000 0.000000 10.827552 -1.744841 1.737876 -5.740845 -6.453016 0.541950 23.574745 40.242844 -25.363167 0.000000 0.000000 0.000000 
1.191975 95.601776 -0.013760 -9.257331 -7.342579 88.135155 6.707838 -13.727043 0.490500 2.786746 -6.874934 -0.150562 1.873126 25.497473 7.113579 -6.505892 19.917795 7.805583 5.839539 2.692314 -13.696652 -11.657871 -1.555510 9.321910 -3.501364 6.410544 6.664396 19.395515 5.633532 -5.760172 -9.335263 5.876901 2.110601 9.085924 1.270424 7.526865 -2.404388 -1.194491 -12.411925 -14.144169 -2.114875 5.309121 10.337151 -3.639234 -0.223195 -3.113363 4.189029 -14.947960 -16.782394 12.038918 37.682461 0.000000 0.000000 0.000000 10.821580 -1.728318 1.792595 -5.740845 -6.453016 0.541950 23.633915 40.184326 -25.434765 0.000000 0.000000 0.000000 
1.179070 95.597725 -0.027252 -9.299696 -7.307038 88.066048 6.692640 -13.726580 0.521252 2.800222 -6.898047 -0.116445 1.832071 25.526442 7.154456 -6.476965 19.826914 7.838552 5.770656 2.677133 -13.647561 -11.596822 -1.526176 9.266714 -3.512893 6.405607 6.669638 19.403429 5.632013 -5.742652 -9.364568 5.865485 2.110575 9.104654 1.243754 7.520480 -2.404740 -1.166232 -12.412419 -13.999180 -2.079549 5.306714 10.313182 -3.650771 -0.224643 -3.146301 4.149554 -14.937260 -16.779587 12.034071 37.740147 0.000000 0.000000 0.000000 10.781157 -1.803459 1.781458 -5.740845 -6.453016 0.541950 23.601782 40.320286 -25.331495 0.000000 0.000000 0.000000 
1.181763 95.595673 -0.027538 -9.303737 -7.299520 88.056198 6.700504 -13.714414 0.521992 2.760288 -6.912445 -0.118060 1.886434 25.550217 7.158501 -6.519941 19.776211 7.846511 5.799684 2.671342 -13.656240 -11.602648 -1.553086 9.280948 -3.510845 6.411416 6.663114 19.450869 5.632355 -5.758492 -9.321594 5.859698 2.132083 9.093820 1.240740 7.497243 -2.412521 -1.192773 -12.408246 -14.202127 -2.130013 5.416054 10.296984 -3.656289 -0.225618 -3.131462 4.159009 -14.940527 -16.801544 12.017488 37.747688 0.000000 0.000000 0.000000 10.769243 -1.803644 1.786947 -5.740845 -6.453016 0.541950 23.648304 40.299828 -25.336372 0.000000 0.000000 0.000000 
1.183846 95.595901 -0.026596 -9.314172 -7.303370 88.045853 6.701092 -13.716220 0.523044 2.766511 -6.902343 -0.117113 1.886883 25.424648 7.158426 -6.518858 19.923895 7.853063 5.795724 2.651037 -13.644039 -11.605010 -1.574094 9.271387 -3.497312 6.415163 6.645548 19.508444 5.628177 -5.779723 -9.325225 5.865618 2.115756 9.100889 1.211027 7.505095 -2.423133 -1.160203 -12.388131 -14.077745 -2.080248 5.319446 10.291224 -3.661169 -0.225973 -3.114033 4.155634 -14.882447 -16.790123 12.037976 37.707367 0.000000 0.000000 0.000000 10.776724 -1.810476 1.794296 -5.740845 -6.453016 0.541950 23.633427 40.293213 -25.337152 0.000000 0.000000 0.000000 
1.184841 95.597702 -0.025406 -9.319449 -7.309344 88.035423 6.685308 -13.709671 0.521960 2.805287 -6.903893 -0.113316 1.903564 25.433685 7.163789 -6.564631 19.886896 7.859643 5.777956 2.650015 -13.687654 -11.620174 -1.575523 9.322273 -3.487809 6.385371 6.612197 19.609587 5.597734 -5.743763 -9.331502 5.885897 2.115050 9.097571 1.247272 7.503104 -2.447844 -1.179517 -12.386930 -14.081984 -2.102861 5.322721 10.291757 -3.663174 -0.225946 -3.104795 4.156698 -14.847589 -16.797010 12.045631 37.690926 0.000000 0.000000 0.000000 10.787661 -1.809832 1.764372 -5.740845 -6.453016 0.541950 23.570997 40.298939 -25.265196 0.000000 0.000000 0.000000 
1.185478 95.598251 -0.026806 -9.326119 -7.308939 88.032234 6.683248 -13.700965 0.522412 2.810870 -6.907837 -0.111628 1.921401 25.423605 7.176386 -6.601763 19.871914 7.874569 5.760222 2.643597 -13.679708 -11.619399 -1.569148 9.306790 -3.450851 6.315572 6.579596 19.624968 5.539335 -5.654569 -9.310369 5.921387 2.096378 9.067540 1.229931 7.515188 -2.448017 -1.229716 -12.376902 -14.307253 -2.175635 5.419789 10.290980 -3.667577 -0.226003 -3.106437 4.153394 -14.849464 -16.794756 12.042319 37.692928 0.000000 0.000000 0.000000 10.778869 -1.820026 1.773034 -5.740845 -6.453016 0.541950 23.600269 40.323105 -25.261848 0.000000 0.000000 0.000000 
1.186218 95.600548 -0.026882 -9.339878 -7.306726 88.027878 6.673234 -13.695706 0.517270 2.814042 -6.925043 -0.114811 1.960707 25.449320 7.195121 -6.645860 19.828270 7.896920 5.774913 2.655902 -13.676101 -11.652567 -1.551193 9.302055 -3.472669 6.220547 6.548275 19.897272 5.448589 -5.552238 -9.292332 5.930193 2.101784 9.065830 1.207856 7.513159 -2.468284 -1.194731 -12.382328 -14.147726 -2.127042 5.353131 10.290613 -3.675008 -0.226043 -3.106329 4.145531 -14.848722 -16.809896 12.050077 37.701118 0.000000 0.000000 0.000000 10.776156 -1.829989 1.793428 -5.740845 -6.453016 0.541950 23.618559 40.309059 -25.282091 0.000000 0.000000 0.000000 
1.184120 95.604187 -0.028374 -9.349574 -7.310187 88.028664 6.678296 -13.690222 0.516358 2.809705 -6.927674 -0.116087 1.993808 25.454933 7.203741 -6.691605 19.794716 7.908436 5.770875 2.646120 -13.689299 -11.659722 -1.552160 9.308321 -3.453768 6.253240 6.551232 19.877785 5.454886 -5.703395 -9.301268 5.882369 2.092674 9.092705 1.274869 7.507929 -2.489707 -1.222486 -12.373647 -14.163704 -2.156584 5.344330 10.290810 -3.685629 -0.226058 -3.102567 4.142245 -14.859481 -16.819675 12.050514 37.706745 0.000000 0.000000 0.000000 10.774166 -1.830118 1.779382 -5.740845 -6.453016 0.541950 23.587950 40.280827 -25.217381 0.000000 0.000000 0.000000 
1.182575 95.607185 -0.024822 -9.361567 -7.322462 88.026276 6.669827 -13.688332 0.510142 2.842596 -6.926061 -0.119171 1.981417 25.464134 7.219809 -6.704518 19.740528 7.921329 5.751050 2.652803 -13.675964 -11.678070 -1.506497 9.263730 -3.438307 6.216453 6.588544 19.862429 5.415089 -5.726161 -9.313721 5.884026 2.085957 9.096790 1.271865 7.513371 -2.499197 -1.228731 -12.368520 -14.154689 -2.163143 5.342663 10.299804 -3.695651 -0.225542 -3.090883 4.135170 -14.796676 -16.839756 12.061248 37.667542 0.000000 0.000000 0.000000 10.789713 -1.844027 1.799022 -5.740845 -6.453016 0.541950 23.606094 40.292450 -25.256260 0.000000 0.000000 0.000000 
1.181332 95.608994 -0.025082 -9.368687 -7.317666 88.024788 6.673691 -13.688667 0.502343 2.824193 -6.913723 -0.128880 1.997129 25.452232 7.244431 -6.725316 19.729202 7.948145 5.758622 2.646728 -13.657855 -11.682708 -1.512373 9.247660 -3.445935 6.190747 6.592891 19.902962 5.389338 -5.717597 -9.307017 5.871649 2.092468 9.105415 1.262508 7.513125 -2.506709 -1.243376 -12.358022 -14.136324 -2.178576 5.351560 10.302535 -3.704385 -0.225399 -3.100549 4.140862 -14.850133 -16.839674 12.052313 37.709175 0.000000 0.000000 0.000000 10.785792 -1.843208 1.788648 -5.740845 -6.453016 0.541950 23.568834 40.268280 -25.222853 0.000000 0.000000 0.000000 
1.176945 95.609924 -0.025135 -9.385221 -7.315290 88.017242 6.667574 -13.679574 0.502871 2.829301 -6.933628 -0.126374 1.987755 25.464346 7.256161 -6.719820 19.692636 7.957305 5.750338 2.642387 -13.663793 -11.678382 -1.514812 9.239386 -3.482036 6.183650 6.645362 19.942024 5.372408 -5.782995 -9.349223 5.887175 2.134699 9.163970 1.198607 7.459519 -2.513690 -1.259274 -12.336225 -14.306787 -2.217007 5.464262 10.302864 -3.716814 -0.225410 -3.106169 4.133400 -14.832834 -16.831379 12.057439 37.706768 0.000000 0.000000 0.000000 10.781890 -1.859386 1.811302 -5.740845 -6.453016 0.541950 23.598667 40.256531 -25.241215 0.000000 0.000000 0.000000 
1.174183 95.610916 -0.025055 -9.395625 -7.311431 88.013016 6.659350 -13.676035 0.496465 2.833226 -6.936756 -0.131415 1.991170 25.484186 7.273067 -6.724720 19.649750 7.973138 5.743697 2.646876 -13.659353 -11.662403 -1.557567 9.248865 -3.536992 6.124458 6.599398 20.184475 5.322005 -5.672248 -9.346788 5.894694 2.147606 9.161132 1.190345 7.452536 -2.515951 -1.241574 -12.328975 -14.084040 -2.177274 5.372892 10.301898 -3.728224 -0.225496 -3.107874 4.135671 -14.857527 -16.828075 12.059165 37.732449 0.000000 0.000000 0.000000 10.778836 -1.868515 1.788953 -5.740845 -6.453016 0.541950 23.551960 40.258255 -25.184597 0.000000 0.000000 0.000000 
